<?xml version="1.0" encoding="utf-8"?>
<!-- Generator: Adobe Illustrator 18.1.1, SVG Export Plug-In . SVG Version: 6.00 Build 0)  -->
<svg version="1.1" id="Layer_1" xmlns="http://www.w3.org/2000/svg" xmlns:xlink="http://www.w3.org/1999/xlink" x="0px" y="0px"
	 viewBox="0 0 1000 1000" enable-background="new 0 0 1000 1000" xml:space="preserve">
<g>
	<g>
		<path fill="#0E4E29" d="M160.5,622.2c0-17.6,13.5-30.3,31.5-30.3c9.6,0,17.8,3.4,23.3,9.8l-7.1,6.6c-4.3-4.6-9.6-6.9-15.7-6.9
			c-12.2,0-21,8.6-21,20.7s8.8,20.7,21,20.7c6.1,0,11.4-2.3,15.7-7l7.1,6.7c-5.5,6.4-13.7,9.8-23.4,9.8
			C173.9,652.5,160.5,639.8,160.5,622.2z"/>
		<path fill="#0E4E29" d="M222.8,622.2c0-17.4,13.5-30.3,31.7-30.3s31.7,12.8,31.7,30.3s-13.5,30.3-31.7,30.3
			S222.8,639.6,222.8,622.2z M275.2,622.2c0-12-8.8-20.7-20.7-20.7c-11.9,0-20.7,8.7-20.7,20.7s8.8,20.7,20.7,20.7
			C266.4,642.9,275.2,634.2,275.2,622.2z"/>
		<path fill="#0E4E29" d="M352.7,635.6c0,10.1-7.9,16-23,16h-29.3v-58.9h27.6c14.1,0,21.7,6,21.7,15.3c0,6.1-3,10.5-7.6,12.9
			C348.4,623,352.7,628,352.7,635.6z M311.3,601.3v16.2h15.5c7.6,0,11.9-2.7,11.9-8.1c0-5.5-4.3-8.2-11.9-8.2H311.3z M341.6,634.5
			c0-5.9-4.5-8.5-12.7-8.5h-17.7v17h17.7C337.2,643,341.6,640.4,341.6,634.5z"/>
		<path fill="#0E4E29" d="M419.2,635.6c0,10.1-7.9,16-23,16h-29.3v-58.9h27.6c14.1,0,21.7,6,21.7,15.3c0,6.1-3,10.5-7.6,12.9
			C414.9,623,419.2,628,419.2,635.6z M377.8,601.3v16.2h15.5c7.6,0,11.9-2.7,11.9-8.1c0-5.5-4.3-8.2-11.9-8.2H377.8z M408.1,634.5
			c0-5.9-4.5-8.5-12.7-8.5h-17.7v17h17.7C403.7,643,408.1,640.4,408.1,634.5z"/>
		<path fill="#0E4E29" d="M433.4,592.8h10.9v49.6h30.8v9.2h-41.7V592.8z"/>
		<path fill="#0E4E29" d="M530.4,642.5v9.2h-44.1v-58.9h43v9.2h-32v15.3h28.4v9h-28.4v16.2H530.4z"/>
		<path fill="#0E4E29" d="M540.1,645.4l3.8-8.5c4.7,3.8,12.2,6.5,19.4,6.5c9.2,0,13-3.3,13-7.7c0-12.7-35-4.4-35-26.2
			c0-9.5,7.6-17.6,23.7-17.6c7.1,0,14.5,1.8,19.6,5.2l-3.4,8.5c-5.3-3.1-11.1-4.6-16.2-4.6c-9.1,0-12.8,3.5-12.8,8
			c0,12.5,34.9,4.4,34.9,26c0,9.4-7.7,17.5-23.8,17.5C554.2,652.5,545,649.6,540.1,645.4z"/>
		<path fill="#0E4E29" d="M611.6,602h-19.5v-9.2H642v9.2h-19.5v49.6h-10.9V602z"/>
		<path fill="#0E4E29" d="M647.8,622.2c0-17.4,13.5-30.3,31.7-30.3c18.2,0,31.7,12.8,31.7,30.3s-13.5,30.3-31.7,30.3
			C661.2,652.5,647.8,639.6,647.8,622.2z M700.1,622.2c0-12-8.8-20.7-20.7-20.7c-11.9,0-20.7,8.7-20.7,20.7s8.8,20.7,20.7,20.7
			C691.3,642.9,700.1,634.2,700.1,622.2z"/>
		<path fill="#0E4E29" d="M777.6,592.8v58.9h-9l-32.5-39.9v39.9h-10.8v-58.9h9l32.5,39.9v-39.9H777.6z"/>
		<path fill="#0E4E29" d="M840,642.5v9.2h-44.1v-58.9h43v9.2h-32v15.3h28.4v9h-28.4v16.2H840z"/>
	</g>
	<g>
		<g>
			<polygon fill="#D67228" points="347.2,714 355.3,714 355.3,697.2 376.5,697.2 376.5,690.3 355.3,690.3 355.3,677 379.2,677 
				379.2,670.2 347.2,670.2 			"/>
		</g>
		<g>
			<path fill="#D67228" d="M455,685.8c0-9.7-7.1-15.6-18.6-15.6h-18V714h8.1v-12.8h9.9c0.6,0,1.1,0,1.7-0.1L447,714h8.8l-10.1-14.4
				C451.6,697.3,455,692.4,455,685.8z M436,694.5h-9.5v-17.5h9.5c7.1,0,10.8,3.2,10.8,8.7C446.8,691.3,443.1,694.5,436,694.5z"/>
		</g>
		<g>
			<path fill="#D67228" d="M525.3,694.6c0,9-4,12.9-11.1,12.9c-7.1,0-11.1-3.9-11.1-12.9v-24.4H495v24.7c0,12.8,7.2,19.7,19.2,19.7
				c11.9,0,19.1-6.9,19.1-19.7v-24.7h-8V694.6z"/>
		</g>
		<g>
			<rect x="576" y="670.2" fill="#D67228" width="8.1" height="43.8"/>
		</g>
		<g>
			<polygon fill="#D67228" points="621.6,670.2 621.6,677.1 636.1,677.1 636.1,714 644.2,714 644.2,677.1 658.7,677.1 658.7,670.2 
							"/>
		</g>
	</g>
	<g>
		<g>
			<g>
				<circle fill="#D67228" cx="470.9" cy="322.9" r="12"/>
			</g>
			<g>
				<circle fill="#D67228" cx="440.3" cy="337.5" r="12"/>
			</g>
			<g>
				<circle fill="#D67228" cx="473.4" cy="365.9" r="12"/>
			</g>
			<g>
				<circle fill="#D67228" cx="527.9" cy="322.9" r="12"/>
			</g>
			<g>
				<circle fill="#D67228" cx="558.5" cy="337.5" r="12"/>
			</g>
			<g>
				<circle fill="#D67228" cx="525.4" cy="365.9" r="12"/>
			</g>
			<g>
				<circle fill="#D67228" cx="560.7" cy="449.1" r="12"/>
			</g>
			<g>
				<circle fill="#D67228" cx="606.6" cy="402.1" r="12"/>
			</g>
			<g>
				<circle fill="#D67228" cx="592.1" cy="371.5" r="12"/>
			</g>
			<g>
				<circle fill="#D67228" cx="563.6" cy="404.5" r="12"/>
			</g>
			<g>
				<circle fill="#D67228" cx="393.6" cy="402.1" r="12"/>
			</g>
			<g>
				<circle fill="#D67228" cx="408.1" cy="371.5" r="12"/>
			</g>
			<g>
				<circle fill="#D67228" cx="436.6" cy="404.5" r="12"/>
			</g>
			<g>
				<circle fill="#D67228" cx="437.7" cy="449.1" r="12"/>
			</g>
		</g>
		<g>
			<path fill="#0E4E29" d="M622.2,422.6h-37.4c2.1-2.1,5.2-6.9,3.1-15.1c0,0-12.2,1.1-15.5,15.1h-60.8l11.6-11.6
				c12,7.1,21.1-0.6,21.1-0.6c-4-6.7-8.9-8.2-12-8.5l16.6-16.6c11.8,6.8,20.8-0.8,20.8-0.8c-3.8-6.3-8.4-8.1-11.6-8.4l31.8-31.8
				c-2.3-2.5-4.7-4.9-7.2-7.2l-25.7,25.7c0.2-2.3,0.1-9.1-8.5-14.2c0,0-8.2,9.8,0.3,22.4l-44.2,44.2v-13.7
				c14.7-3,15.8-15.6,15.8-15.6c-9.3-2.4-14.1,1.9-15.8,3.8v-34.9c14.2-3.2,15.3-15.5,15.3-15.5c-8.4-2.1-13.2,1.2-15.3,3.2v-37.9
				c-1.7-0.1-3.4-0.1-5.1-0.1c-1.7,0-3.4,0-5.1,0.1v37.9c-2.1-2.1-6.9-5.4-15.3-3.2c0,0,1.1,12.3,15.3,15.5v60.4l-10.9-10.9
				c7.4-12.1-0.4-21.4-0.4-21.4c-7,4.2-8.4,9.5-8.5,12.6L450,371.2c8.6-12.7,0.3-22.5,0.3-22.5c-8.7,5.2-8.7,12.1-8.5,14.3
				L416,337.2c-2.5,2.3-4.9,4.7-7.2,7.2l31.7,31.7c-2.7-0.1-8.9,0.6-13.5,8.5c0,0,9.6,8.1,22,0l38,38h-59
				c-3.3-14.1-15.5-15.1-15.5-15.1c-2.1,8.2,1,13,3.1,15.1h-39.2c-0.1,1.7-0.1,3.4-0.1,5.1c0,1.7,0,3.4,0.1,5.1h23.1
				c-2.1,2-5.6,6.8-3.4,15.5c0,0,12.4-1.1,15.5-15.5h57.1c-2.1,2-5.6,6.8-3.4,15.5c0,0,12.4-1.1,15.5-15.5h13.3v42.9h10.2v-42.9
				h13.1c3.1,14.4,15.5,15.5,15.5,15.5c2.2-8.7-1.3-13.5-3.4-15.5h57.1c3.1,14.4,15.5,15.5,15.5,15.5c2.2-8.7-1.3-13.5-3.4-15.5
				h23.3c0.1-1.7,0.1-3.4,0.1-5.1C622.3,426,622.2,424.3,622.2,422.6z"/>
		</g>
		<g>
			<path fill="#3D3D3D" d="M499.3,284.8c-79.1,0-143.5,64.4-143.5,143.5s64.4,143.5,143.5,143.5s143.5-64.4,143.5-143.5
				S578.4,284.8,499.3,284.8z M499.3,561.9c-73.6,0-133.5-59.9-133.5-133.5s59.9-133.5,133.5-133.5s133.5,59.9,133.5,133.5
				S572.9,561.9,499.3,561.9z"/>
		</g>
		<g>
			<g>
				<path fill="#6C6A68" d="M490.2,494.1c-16,15.4-20.3,32.2-20.2,46.2c0,4.2,3.1,7.8,7.3,8.6c7.1,1.3,14.5,2,22,2
					c2.4,0,4.9-0.1,7.3-0.2c4.8-0.3,8.4-4.4,8.2-9.2C513.1,507.8,512.5,472.5,490.2,494.1z"/>
			</g>
			<g>
				<path fill="#6C6A68" d="M454.7,540.3c-0.7,0.5-0.8,1.9-0.1,2.2c2.5,1.2,5,1.8,8.1,2.8c0.8,0.3,1.6-0.6,1.2-1.4
					C461.6,539.4,458.7,537.4,454.7,540.3z"/>
			</g>
			<g>
				<path fill="#4C4D4E" d="M437.7,506c-6.9-1.6-14.6-0.2-21.2,3.2c-3.3,1.7-3.8,6.1-1.2,8.6c8.6,8,18.3,14.8,28.9,20.1
					c1.6,0.8,3.6,0.7,5.1-0.3c2.5-1.6,5-3.2,7.4-4.8C476.4,519.7,445.7,507.8,437.7,506z"/>
			</g>
			<g>
				<path fill="#BF9B54" d="M449,490.6c-14.6,8.3,17.1,27.5,24.8,19.7C481.5,502.5,455.8,486.7,449,490.6z"/>
			</g>
			<g>
				<path fill="#BF9B54" d="M550.9,524.2c13.7-12.8,17.9-26.5,8.7-32.4c-5.3-3.3-21-12.5-32.1-16.2h-11.3c-0.8,1.2-0.7,3.2,0.4,6.2
					c4.3,10.9,7.5,31.2,7.5,42.4C524.1,535.3,537.2,537,550.9,524.2z"/>
			</g>
			<g>
				<path fill="#4C4D4E" d="M521,543.6c-0.3,1-0.3,2.1-0.3,3.2c0.1,1.1,1.1,2,2.2,1.8c3.6-0.7,7.1-1.5,10.5-2.5
					c1.3-0.4,1.8-2.1,0.8-3.1C529.4,537.8,522.9,536.2,521,543.6z"/>
			</g>
			<g>
				<path fill="#81686B" d="M476.4,475.6c-7,5.7-8.4,12.7-1.1,14.2c9.5,1.9,23.3-4.4,29.6-7.8c2-1.1,3.1-3.7,2.9-6.4h-3.4h-10.2
					H476.4z"/>
			</g>
			<g>
				<path fill="#81686B" d="M585.3,512.4c-6.4-4.5-12.7-8.9-15.3-1.1c-3.6,11.1-12.7,15.9-21.5,24.9c-0.1,0.1-0.2,0.2-0.3,0.3
					c-1.6,1.6,0.3,4.1,2.3,3.2c13.1-6,24.9-14.2,35-24.2C586.5,514.6,586.3,513.1,585.3,512.4z"/>
			</g>
			<g>
				<path fill="#4C4D4E" d="M571.7,487.5c5.8,1.8,25.3-0.5,37.9-6.3c0.5-0.2,0.8-0.6,1.1-1.1c0.6-1.4,1.6-3.7,1.9-4.5h-71.1
					C552.9,481,567.5,486.2,571.7,487.5z"/>
			</g>
			<g>
				<path fill="#6C6A68" d="M601.4,490.1c-3.7,1.7-8.4,4.2-12.1,4.6c-8.3,0.8-9.8-1.4-14.4,1.7c-4.3,3,8.6,9.2,17.8,10.2
					c0.6,0.1,1.2-0.2,1.6-0.7c3.4-4.2,6.6-8.6,9.5-13.2C604.7,491.2,603.1,489.3,601.4,490.1z"/>
			</g>
			<g>
				<path fill="#A9A9A9" d="M451,485.5c3.7-2.1,9-5.9,12.8-9.9H397h-11.1c0.8,1.9,1.6,3.7,2.5,5.5c1.7,3.5,5.9,10.6,7.9,14
					c1.3,2,2.6,3.9,4,5.8c0.7,1,2,1.4,3.2,1c2.4-0.8,4.4-1.6,6.2-2.2c0.1,0,0.2-0.1,0.4-0.2c0,0,0,0,0,0c5-1.8,11.4-3.3,16.3-3.8
					C436.5,494.7,442.1,490.7,451,485.5z"/>
			</g>
		</g>
	</g>
</g>
</svg>
